<svg xmlns="http://www.w3.org/2000/svg" version="1.1" xmlns:xlink="http://www.w3.org/1999/xlink" xmlns:svgjs="http://svgjs.dev/svgjs" width="1500" height="1687" viewBox="0 0 1500 1687"><g transform="matrix(1,0,0,1,0.00011015625000254659,0)"><svg viewBox="0 0 320 360" data-background-color="#2e220a" preserveAspectRatio="xMidYMid meet" height="1687" width="1500" xmlns="http://www.w3.org/2000/svg" xmlns:xlink="http://www.w3.org/1999/xlink"><g id="tight-bounds" transform="matrix(1,0,0,1,0.000023499999997511622,0)"><svg viewBox="0 0 320 360" height="360" width="320"><g><svg></svg></g><g><svg viewBox="0 0 320 360" height="360" width="320"><g><path transform="translate(-74.99272,-51.79039) scale(4.65793,4.65793)" d="M20.6 59.9l0.8 1-0.4-1.3c-0.1-0.6-0.8 0.1-0.4 0.3M21.5 59.3c0.3 0.5 0.6 1 0.6 1.5 0 0.7 0.6 1 1.1 1.2-0.7-0.8-1.1-3-1.7-2.7M59.9 16.9c1.7 0 3.3-0.2 5.1 0.2 4.4 1.1 8.1 3.3 10.6 6.4l7 11.2c0.3 2.8 0.9 5.9 0.8 9.3 0.7 0 0.6-1 1.4-1.2-0.8 2-1.2 4.5-1.4 7.4-0.5-1.6 0-4 0.1-5.3-0.7 1.1-1.1 0.3-1.1-0.2 0.1-0.8-0.3-0.7-0.6-1-1.1-1-1.8-2.1-2.6-3.8 0.5-1.3 0.6-3.2-1-4.2-0.5-0.3-1.1-0.8-1.4-1.6-0.4-1.1-1.1-2.4-0.9-4.1 0.1-0.5-1.5 1.1-2.4 0.4-3.9-2.7-7.8-5.8-12.5-8.4-2.5 0-4.3-0.9-5.2-2-0.8-1-0.2-2.3 1-2.4 0.7 0 1.5-0.2 2.1 0.2 0.1-0.4 0.5-0.9 1-0.9M50 14.6l0.2 0.1c1 0.2 1.5 1.6 2.6 1.1 0 0.7 0.1 1.4-0.1 1.9-0.3 0.8-1.2 0.8-1.9 0.8-6.7-0.4-10.6 2.4-14.7 4.8-1.1 0.7-2.3 1.2-3.2 2.1-4.3 4-9 7.7-10.1 15.1l-0.9 8.2c-0.1 0.9-1.1 1.8-0.9 2.9l0.7 4.9c-0.7-0.7-1.1 0.2-0.9 0.6 0.1 0.3 0.5 1.3 1.1 0.4 0.8 1.5 1.6 4.4 2.7 5.7 3.4 4 7.8 7.6 11.4 11.2 0.9-0.2 1.6-0.2 1.8-0.8 0.3 0.6-0.3 1.2-0.8 1.3 1.6 1 3.4 1.9 5.8 2.1 3.1 0.2 6 0.7 8.7 1.4 1.4-0.4 2.8-0.6 4.3-0.7 0.5 0 0.8-0.8 1.4-1l0.1-1c0.6 0.9 0.5-0.3 0.1-0.9 0.7 0.6 0.9 1.1 1.2 1.5 0-0.3 0.8-1.4 0.8-0.1l0.2-1.3c0.3-0.2 0.4 1.1 0.7 0.2 0.3-0.9 0.9-0.2 1.5-0.5-0.2 0.4-0.1 1.2 0.6 0.7l0.8-0.7c0.5 1.2 1.3 0.7 1.7 0.5 4.4-2.8 8.8-6.1 13-9.4l-0.1 1.3 0.5-1.6c0.5 0.5 0.9 0.1 1.1-0.2 0.6-1 1.4-2 2.7-2.9-1.6 4.3-3.5 7.7-5.9 10.5l-1 1.2c0 0.7-0.2 1.6-1 1.7-0.4 0.1-1.2-0.2-1.8 0.4-0.3 0.4 0.7 1.2-0.1 0.6-0.7-0.5-1.4 0-2.2 0.2-0.6 0.2 0.4 0.8 0.6 1.2 0.2 0.4 0.4 0.8 0.3 1.3l-1.1-1.2c-1.3 0.7-2.1 2-3.2 3-0.5 0.4-0.3 1.1-0.3 1.7-0.7 0-1.5-0.2-1.9 0.2-0.3 0.4-0.2 1-0.2 1.6-1-0.1-1.1-1.6-2-1.3-0.9 0.2-1.9 0.3-2.7 0.8 0.6 1.2-1 0.5-0.8 0.7-1.5-0.9-2.8-1.6-4.4-1-3.4-1.1-7.6-0.6-10.7-0.2 0-0.5 0.1-1-0.1-1.1-0.2 0.5-0.8 0.3-0.7 0.3-1.9-1.3-3.8-2.1-5.8-3.2-1.8 0.2-3.5-0.7-4-1.2-1.4-1.3-3-0.6-4.3-0.9-2.8-0.7-3.8-3.6-4.1-5.6-0.2-1-1-1.4-1.3-1.3-1.3-4.2-3.3-8-4.9-11.9-0.4-1-0.3-2-0.3-3.1 0.5 0.2 1 0.1 0.9-0.6-0.5-3.3-1.7-5.8-3-8.2 0.7-3.4 0.8-7.4 2.4-10.4 1.4-2.7 4-4.1 5.8-6.4 0.6-0.8 0.6-1.9 1.2-2.6 2-2 4-4.1 6.2-5.9 1-0.8 2.2 0 3.7-0.3 0.5-1.8 2.5-3.4 4.4-2.9 0.8 0.2 2.4-1.9 2.9-2.1 0.8-0.3 0.4 0.8 0.4 1.5 1.9-1.5 4.5-2.3 6.9-3.2" fill="#ffb144" fill-rule="nonzero" stroke="none" stroke-width="1" stroke-linecap="butt" stroke-linejoin="miter" stroke-miterlimit="10" stroke-dasharray="" stroke-dashoffset="0" font-family="none" font-weight="none" font-size="none" text-anchor="none" style="mix-blend-mode: normal" data-fill-palette-color="tertiary"></path></g><g transform="matrix(1,0,0,1,64.00000000000001,103.58571213928408)"><svg viewBox="0 0 191.99999999999997 152.82857572143183" height="152.82857572143183" width="191.99999999999997"><g><svg viewBox="0 0 191.99999999999997 152.82857572143183" height="152.82857572143183" width="191.99999999999997"><g><svg viewBox="0 0 262.00065112758097 208.54784557247893" height="152.82857572143183" width="191.99999999999997"><g transform="matrix(1,0,0,1,108.25433088948571,0)"><svg viewBox="0 0 153.74632023809525 208.54784557247893" height="208.54784557247893" width="153.74632023809525"><g id="textblocktransform"><svg viewBox="0 0 153.74632023809525 208.54784557247893" height="208.54784557247893" width="153.74632023809525" id="textblock"><g><svg viewBox="0 0 153.74632023809525 178.88760000000002" height="178.88760000000002" width="153.74632023809525"><g transform="matrix(1,0,0,1,0,0)"><svg width="153.74632023809525" viewBox="39.72 -29.700000000000006 129.95000000000002 132.8" height="178.88760000000002" data-palette-color="#ffad1c"><svg></svg><svg></svg><svg></svg><g class="wordmark-text-0" data-fill-palette-color="primary" id="text-0"><path transform="translate(39.17,0)" d="M5.7 1.6v0c-2.367 0-3.55-1.533-3.55-4.6v0c0-2.8 1.383-7.033 4.15-12.7v0c1.5-3.1 2.39-4.977 2.67-5.63 0.287-0.647 0.297-0.953 0.03-0.92v0c-0.267 0.067-0.65 0.283-1.15 0.65v0c-2.6 2.2-4.867 3.367-6.8 3.5v0c-0.333 0.033-0.5-0.05-0.5-0.25v0c0.067-0.3 0.283-0.483 0.65-0.55v0c1.3-0.133 3.243-1.243 5.83-3.33 2.58-2.08 4.137-3.62 4.67-4.62v0c0.133-0.4 0.767-0.6 1.9-0.6v0c0.867 0.067 1.283 0.267 1.25 0.6v0c-5.733 9.667-8.983 16.567-9.75 20.7v0c-0.167 0.933-0.25 1.767-0.25 2.5v0c0 2.333 0.833 3.5 2.5 3.5v0c2.733 0 6.767-2.583 12.1-7.75v0c2.233-14.533 5.8-21.8 10.7-21.8v0c1.733 0 2.817 0.567 3.25 1.7v0c0.2 0.5 0.3 1.023 0.3 1.57 0 0.553-0.117 1.13-0.35 1.73v0c-0.533 1.767-1.407 3.573-2.62 5.42-1.22 1.853-2.92 4.07-5.1 6.65-2.187 2.587-3.48 4.147-3.88 4.68v0c-0.467 2.367-0.767 5.35-0.9 8.95v0c0 0.2 0 0.383 0 0.55v0c0 3.167 0.55 5.417 1.65 6.75v0c0.467 0.533 0.91 0.8 1.33 0.8 0.413 0 0.787-0.2 1.12-0.6v0c0.167-0.267 0.377-0.523 0.63-0.77 0.247-0.253 0.447-0.337 0.6-0.25 0.147 0.08 0.17 0.287 0.07 0.62v0c-0.333 0.533-0.55 0.85-0.65 0.95v0c-0.533 0.667-1.467 1-2.8 1v0c-0.1 0-0.217 0-0.35 0v0c-1.933-0.033-3.167-1.667-3.7-4.9v0c-0.133-1.033-0.2-2.423-0.2-4.17 0-1.753 0.217-4.113 0.65-7.08v0c-5.333 5.133-9.833 7.7-13.5 7.7zM31.8-25.5v0c0.167-0.6 0.25-1.15 0.25-1.65 0-0.5-0.107-0.85-0.32-1.05-0.22-0.2-0.43-0.3-0.63-0.3v0c-0.467 0-1.083 0.417-1.85 1.25v0c-3.033 3.367-5.267 8.733-6.7 16.1v0c1.867-1.767 3.727-4.033 5.58-6.8 1.847-2.767 3.07-5.283 3.67-7.55zM42.2-14.2v0c0.767 0 1.15 0.407 1.15 1.22 0 0.82-0.383 1.947-1.15 3.38-0.767 1.433-1.333 2.6-1.7 3.5v0c-0.633 1.533-0.95 2.757-0.95 3.67 0 0.92 0.133 1.53 0.4 1.83v0c0.5 0.533 1.183 0.557 2.05 0.07 0.867-0.48 2.077-1.413 3.63-2.8 1.547-1.38 2.787-2.737 3.72-4.07v0c0.133-0.167 0.293-0.21 0.48-0.13 0.18 0.087 0.27 0.17 0.27 0.25 0 0.087-0.033 0.18-0.1 0.28v0c-0.5 0.9-1.4 2.05-2.7 3.45-1.3 1.4-2.55 2.523-3.75 3.37-1.2 0.853-2.383 1.28-3.55 1.28v0c-1.133-0.033-1.933-0.29-2.4-0.77-0.467-0.487-0.7-1.097-0.7-1.83 0-0.733 0.067-1.443 0.2-2.13 0.133-0.68 0.383-1.47 0.75-2.37v0c0.6-1.433 1.123-2.55 1.57-3.35 0.453-0.8 0.68-1.327 0.68-1.58 0-0.247-0.133-0.37-0.4-0.37v0c-0.533 0-1.55 0.65-3.05 1.95v0c-1.033 0.967-2.557 2.79-4.57 5.47-2.02 2.687-3.163 4.113-3.43 4.28v0c-1.2 0.6-1.95 0.9-2.25 0.9-0.3 0-0.45-0.05-0.45-0.15 0-0.1 0.033-0.24 0.1-0.42 0.067-0.187 0.393-1.097 0.98-2.73 0.58-1.633 1.213-3.427 1.9-5.38 0.68-1.947 1.097-3.12 1.25-3.52 0.147-0.4 0.247-0.743 0.3-1.03 0.047-0.28 0.103-0.52 0.17-0.72 0.067-0.2 0.193-0.427 0.38-0.68 0.18-0.247 0.42-0.38 0.72-0.4 0.3-0.013 0.683 0.02 1.15 0.1 0.467 0.087 0.7 0.297 0.7 0.63v0c0 0.233-0.183 0.74-0.55 1.52-0.367 0.787-1.417 3.48-3.15 8.08v0c1.2-1.467 2.717-3.157 4.55-5.07 1.833-1.92 3.383-3.38 4.65-4.38v0c1.267-0.9 2.3-1.35 3.1-1.35zM56.42-12.5c-0.48 0.4-1.363 1.44-2.65 3.12-1.28 1.687-2.16 3.18-2.64 4.48-0.487 1.3-0.73 2.367-0.73 3.2 0 0.833 0.36 1.25 1.08 1.25 0.713 0 1.72-0.517 3.02-1.55v0c2.1-1.733 4.467-4.95 7.1-9.65v0c0.133-0.233 0.377-0.35 0.73-0.35 0.347 0 0.83 0.09 1.45 0.27 0.613 0.187 0.92 0.43 0.92 0.73v0c0 0.1-0.033 0.2-0.1 0.3v0c-1.4 2.267-2.283 4.833-2.65 7.7v0c-0.133 0.967 0.033 1.75 0.5 2.35v0c0.433 0.6 1.317 0.533 2.65-0.2v0c2.067-1.033 3.96-2.65 5.68-4.85 1.713-2.2 2.77-4.183 3.17-5.95v0c0.133-0.367 0.2-0.767 0.2-1.2v0c0-1.867-0.533-3-1.6-3.4v0c-0.3-0.133-0.633-0.177-1-0.13-0.367 0.053-0.583 0.037-0.65-0.05-0.067-0.08-0.083-0.17-0.05-0.27v0c0.067-0.3 0.75-0.45 2.05-0.45v0c2.167 0 3.25 1.117 3.25 3.35 0 2.233-1.267 4.917-3.8 8.05v0c-1.6 1.9-3.483 3.65-5.65 5.25v0c-1.2 0.833-2.45 1.25-3.75 1.25v0c-1.7 0-2.75-0.633-3.15-1.9v0c-0.233-0.6-0.35-1.55-0.35-2.85 0-1.3 0.167-2.367 0.5-3.2v0c-0.9 1.8-1.883 3.317-2.95 4.55-1.067 1.233-1.977 2.073-2.73 2.52-0.747 0.453-1.503 0.68-2.27 0.68v0c-1.333 0-2.267-0.36-2.8-1.08-0.533-0.713-0.8-1.487-0.8-2.32v0c0-1.1 0.243-2.293 0.73-3.58 0.48-1.28 0.963-2.293 1.45-3.04 0.48-0.753 1.113-1.657 1.9-2.71 0.78-1.047 1.287-1.62 1.52-1.72v0c0.5-0.133 0.973-0.2 1.42-0.2 0.453 0 0.847 0.067 1.18 0.2 0.333 0.133 0.51 0.3 0.53 0.5 0.013 0.2-0.223 0.5-0.71 0.9zM82.85 1.25v0c-1.7 0-2.55-1.027-2.55-3.08 0-2.047 1.467-4.57 4.4-7.57v0c0.233-0.233 0.4-0.417 0.5-0.55v0l0.35-0.5c0.467-0.633 0.683-1.033 0.65-1.2v0l-0.15-0.45c-0.133-0.4-0.683-0.693-1.65-0.88-0.967-0.18-1.75-0.27-2.35-0.27v0c-3 4.233-4.733 6.65-5.2 7.25-0.467 0.6-0.783 0.85-0.95 0.75-0.167-0.1-0.25-0.217-0.25-0.35 0-0.133 0.1-0.333 0.3-0.6v0c1.8-2.2 3.35-4.55 4.65-7.05v0c-0.4-0.067-0.7-0.21-0.9-0.43-0.2-0.213-0.217-0.58-0.05-1.1 0.167-0.513 0.673-1.203 1.52-2.07 0.853-0.867 1.597-1.45 2.23-1.75 0.633-0.3 1.033-0.483 1.2-0.55 0.167-0.067 0.35-0.1 0.55-0.1v0c0.4 0 0.267 0.6-0.4 1.8v0l-1.95 3.1c1.5 0.1 2.783 0.15 3.85 0.15v0l1.75-0.05c0.567 0 0.983 0.073 1.25 0.22 0.267 0.153 0.333 0.413 0.2 0.78v0c-0.233 0.633-0.817 1.483-1.75 2.55v0c-2 2.333-3.5 4.817-4.5 7.45v0c-0.233 0.633-0.35 1.183-0.35 1.65v0c0 0.967 0.35 1.45 1.05 1.45v0c0.233 0 0.677-0.183 1.33-0.55 0.647-0.367 1.737-1.243 3.27-2.63 1.533-1.38 2.767-2.737 3.7-4.07v0c0.133-0.167 0.293-0.21 0.48-0.13 0.18 0.087 0.27 0.17 0.27 0.25 0 0.087-0.033 0.18-0.1 0.28v0c-0.5 0.9-1.4 2.05-2.7 3.45-1.3 1.4-2.567 2.533-3.8 3.4v0c-1.2 0.933-2.5 1.4-3.9 1.4zM94.5 0.55v0c-0.533 0-1.107-0.157-1.72-0.47-0.62-0.32-1.147-0.773-1.58-1.36-0.433-0.58-0.65-1.203-0.65-1.87 0-0.667 0.15-1.3 0.45-1.9v0c0.667-1.4 1.74-2.76 3.22-4.08 1.487-1.313 3.03-2.437 4.63-3.37 1.6-0.933 2.867-1.517 3.8-1.75 0.933-0.233 1.843-0.35 2.73-0.35 0.88 0 1.637 0.223 2.27 0.67 0.633 0.453 0.95 0.93 0.95 1.43v0c0 0.167-0.017 0.267-0.05 0.3-0.033 0.033-0.117 0.017-0.25-0.05v0c-0.4-0.633-1.223-0.95-2.47-0.95-1.253 0-2.67 0.407-4.25 1.22-1.587 0.82-3.08 1.847-4.48 3.08v0c-1.167 1.1-2.19 2.34-3.07 3.72-0.887 1.387-1.33 2.397-1.33 3.03v0c0 1.233 0.35 1.85 1.05 1.85 0.7 0 1.767-0.567 3.2-1.7v0c2.367-2 3.983-3.467 4.85-4.4v0c3.067-3.3 4.717-4.95 4.95-4.95v0c0.4 0 0.883 0.117 1.45 0.35 0.567 0.233 0.75 0.517 0.55 0.85v0c-1.7 2.4-2.7 4.817-3 7.25v0c-0.033 0.3-0.05 0.683-0.05 1.15 0 0.467 0.133 0.85 0.4 1.15v0c0.5 0.533 1.183 0.567 2.05 0.1 0.867-0.467 2.077-1.4 3.63-2.8 1.547-1.4 2.787-2.767 3.72-4.1v0c0.133-0.167 0.283-0.21 0.45-0.13 0.167 0.087 0.25 0.163 0.25 0.23v0c0 0.5-0.79 1.59-2.37 3.27-1.587 1.687-2.797 2.83-3.63 3.43v0c-1.567 1.167-3.017 1.75-4.35 1.75v0c-1.267 0-2.117-0.633-2.55-1.9v0c-0.1-0.4-0.15-0.85-0.15-1.35v0c0-1.5 0.317-3.083 0.95-4.75v0c-0.133 0.067-0.75 0.733-1.85 2-1.1 1.267-2.377 2.483-3.83 3.65-1.447 1.167-2.753 1.75-3.92 1.75zM130.5-10.4v0c0 1.467-0.6 2.957-1.8 4.47-1.2 1.52-2.617 2.847-4.25 3.98v0c-1.5 0.967-3.023 1.717-4.57 2.25-1.553 0.533-2.72 0.8-3.5 0.8-0.787 0-1.43-0.083-1.93-0.25v0c-0.733 1.7-1.75 4.55-3.05 8.55v0c-0.133 0.433-0.21 0.977-0.23 1.63-0.013 0.647-0.213 1.53-0.6 2.65-0.38 1.113-0.753 2.003-1.12 2.67v0c-0.167 0.4-0.65 0.723-1.45 0.97-0.8 0.253-1.367 0.38-1.7 0.38-0.333 0-0.5-0.167-0.5-0.5v0c0-0.133 0.05-0.317 0.15-0.55v0c1.533-3.133 3.467-7.74 5.8-13.82 2.333-6.087 3.617-9.463 3.85-10.13 0.233-0.667 0.567-1.633 1-2.9v0c0.733-2.133 1.133-3.733 1.2-4.8v0c0-0.4 0.533-0.6 1.6-0.6 1.067 0 1.6 0.383 1.6 1.15v0c0 0.567-0.327 1.357-0.98 2.37-0.647 1.02-1.603 3.047-2.87 6.08v0c1.933-2.933 3.5-4.85 4.7-5.75v0c1.6-1.3 3.15-1.95 4.65-1.95v0c0.6 0 1.2 0.1 1.8 0.3v0c1.3 0.467 2.017 1.217 2.15 2.25v0c0.033 0.267 0.05 0.517 0.05 0.75zM128.05-11.1v0c0-1.167-0.45-1.75-1.35-1.75v0c-0.533 0-1.4 0.317-2.6 0.95-1.2 0.633-2.4 1.583-3.6 2.85-1.2 1.267-2.127 2.457-2.78 3.57-0.647 1.12-1.253 2.273-1.82 3.46-0.567 1.18-0.9 1.87-1 2.07v0c2.033 0 4.267-0.883 6.7-2.65 2.433-1.767 4.25-3.683 5.45-5.75v0c0.667-1.033 1-1.95 1-2.75z" fill="#ffad1c" fill-rule="nonzero" stroke="none" stroke-width="1" stroke-linecap="butt" stroke-linejoin="miter" stroke-miterlimit="10" stroke-dasharray="" stroke-dashoffset="0" font-family="none" font-weight="none" font-size="none" text-anchor="none" style="mix-blend-mode: normal" data-fill-palette-color="primary" opacity="1"></path><path transform="translate(88.9,50.4)" d="M4-22.23c0.033-0.18 0.167-0.353 0.4-0.52 0.233-0.167 0.667-0.25 1.3-0.25 0.633 0 0.95 0.283 0.95 0.85v0c0 0.4-0.083 0.867-0.25 1.4-0.167 0.533-0.283 0.923-0.35 1.17-0.067 0.253-0.257 0.887-0.57 1.9-0.32 1.02-0.547 1.78-0.68 2.28v0c-0.133 0.567-0.323 0.85-0.57 0.85-0.253 0-0.38-0.2-0.38-0.6v0l0.2-5c0-0.233-0.017-0.593-0.05-1.08-0.033-0.48-0.033-0.813 0-1zM23.15-14.2v0c0.767 0 1.15 0.407 1.15 1.22 0 0.82-0.383 1.947-1.15 3.38-0.767 1.433-1.333 2.6-1.7 3.5v0c-0.633 1.533-0.95 2.757-0.95 3.67 0 0.92 0.133 1.53 0.4 1.83v0c0.5 0.533 1.183 0.557 2.05 0.07 0.867-0.48 2.077-1.413 3.63-2.8 1.547-1.38 2.787-2.737 3.72-4.07v0c0.133-0.167 0.293-0.21 0.48-0.13 0.18 0.087 0.27 0.17 0.27 0.25 0 0.087-0.033 0.18-0.1 0.28v0c-0.5 0.9-1.4 2.05-2.7 3.45-1.3 1.4-2.55 2.523-3.75 3.37-1.2 0.853-2.383 1.28-3.55 1.28v0c-1.133-0.033-1.933-0.29-2.4-0.77-0.467-0.487-0.7-1.097-0.7-1.83 0-0.733 0.067-1.443 0.2-2.13 0.133-0.68 0.383-1.47 0.75-2.37v0c0.6-1.433 1.127-2.55 1.58-3.35 0.447-0.8 0.67-1.327 0.67-1.58 0-0.247-0.133-0.37-0.4-0.37v0c-0.533 0-1.55 0.65-3.05 1.95v0c-1.033 0.967-2.557 2.79-4.57 5.47-2.02 2.687-3.163 4.113-3.43 4.28v0c-1.2 0.6-1.95 0.9-2.25 0.9-0.3 0-0.45-0.05-0.45-0.15 0-0.1 0.033-0.24 0.1-0.42 0.067-0.187 0.39-1.097 0.97-2.73 0.587-1.633 1.223-3.427 1.91-5.38 0.68-1.947 1.097-3.12 1.25-3.52 0.147-0.4 0.247-0.743 0.3-1.03 0.047-0.28 0.103-0.52 0.17-0.72 0.067-0.2 0.193-0.427 0.38-0.68 0.18-0.247 0.42-0.38 0.72-0.4 0.3-0.013 0.683 0.02 1.15 0.1 0.467 0.087 0.7 0.297 0.7 0.63v0c0 0.233-0.183 0.74-0.55 1.52-0.367 0.787-1.417 3.48-3.15 8.08v0c1.2-1.467 2.717-3.157 4.55-5.07 1.833-1.92 3.383-3.38 4.65-4.38v0c1.267-0.9 2.3-1.35 3.1-1.35zM31.7-22.23c0.033-0.18 0.167-0.353 0.4-0.52 0.233-0.167 0.667-0.25 1.3-0.25 0.633 0 0.95 0.283 0.95 0.85v0c0 0.4-0.083 0.867-0.25 1.4-0.167 0.533-0.283 0.923-0.35 1.17-0.067 0.253-0.257 0.887-0.57 1.9-0.32 1.02-0.547 1.78-0.68 2.28v0c-0.133 0.567-0.323 0.85-0.57 0.85-0.253 0-0.38-0.2-0.38-0.6v0l0.2-5c0-0.233-0.017-0.593-0.05-1.08-0.033-0.48-0.033-0.813 0-1z" fill="#ffad1c" fill-rule="nonzero" stroke="none" stroke-width="1" stroke-linecap="butt" stroke-linejoin="miter" stroke-miterlimit="10" stroke-dasharray="" stroke-dashoffset="0" font-family="none" font-weight="none" font-size="none" text-anchor="none" style="mix-blend-mode: normal" data-fill-palette-color="primary" opacity="1"></path><path transform="translate(52.08,100.8)" d="M32.25-26.4v0c0 0.733-0.3 1.583-0.9 2.55v0c-0.5 0.9-1.057 1.517-1.67 1.85-0.62 0.333-0.93 0.3-0.93-0.1v0c0-0.033 0.183-0.233 0.55-0.6v0c1.1-1.033 1.65-1.883 1.65-2.55v0c0-1.433-1.417-2.15-4.25-2.15v0c-1.2 0-2.783 0.223-4.75 0.67-1.967 0.453-3.867 1.18-5.7 2.18v0c-2.133 1.167-3.2 2.183-3.2 3.05v0c0 0.7 0.65 1.367 1.95 2v0c0.7 0.333 2.093 0.893 4.18 1.68 2.08 0.78 3.763 1.46 5.05 2.04 1.28 0.587 2.497 1.413 3.65 2.48 1.147 1.067 1.72 2.25 1.72 3.55 0 1.3-0.767 2.717-2.3 4.25v0c-2.333 2.233-5.367 4.093-9.1 5.58-3.733 1.48-6.933 2.22-9.6 2.22v0c-5.267 0-7.9-1.483-7.9-4.45 0-2.967 1.617-5.483 4.85-7.55v0c2.667-1.833 5.467-2.75 8.4-2.75v0c0.7 0 1.017 0.117 0.95 0.35v0c-0.067 0.233-0.567 0.357-1.5 0.37-0.933 0.02-2.133 0.337-3.6 0.95-1.467 0.62-2.833 1.513-4.1 2.68v0c-1.667 1.5-2.5 3-2.5 4.5v0c0 0.933 0.45 1.767 1.35 2.5 0.9 0.733 2.617 1.1 5.15 1.1 2.533 0 5.033-0.4 7.5-1.2v0c5.333-1.767 8.667-3.7 10-5.8v0c0.533-0.767 0.8-1.417 0.8-1.95v0c0-1.533-0.933-2.733-2.8-3.6v0c-2.167-1-5.2-2.15-9.1-3.45v0c-1.5-0.5-2.773-1.16-3.82-1.98-1.053-0.813-1.58-1.797-1.58-2.95 0-1.147 0.627-2.28 1.88-3.4 1.247-1.113 2.753-2.003 4.52-2.67v0c3.8-1.433 7.017-2.15 9.65-2.15v0c3.667 0 5.5 0.917 5.5 2.75zM34.1 0.55v0c-0.533 0-1.107-0.157-1.72-0.47-0.62-0.32-1.147-0.773-1.58-1.36-0.433-0.58-0.65-1.203-0.65-1.87 0-0.667 0.15-1.3 0.45-1.9v0c0.667-1.4 1.743-2.76 3.23-4.08 1.48-1.313 3.02-2.437 4.62-3.37 1.6-0.933 2.867-1.517 3.8-1.75 0.933-0.233 1.843-0.35 2.73-0.35 0.88 0 1.637 0.223 2.27 0.67 0.633 0.453 0.95 0.93 0.95 1.43v0c0 0.167-0.017 0.267-0.05 0.3-0.033 0.033-0.117 0.017-0.25-0.05v0c-0.4-0.633-1.223-0.95-2.47-0.95-1.253 0-2.67 0.407-4.25 1.22-1.587 0.82-3.08 1.847-4.48 3.08v0c-1.167 1.1-2.19 2.34-3.07 3.72-0.887 1.387-1.33 2.397-1.33 3.03v0c0 1.233 0.35 1.85 1.05 1.85 0.7 0 1.767-0.567 3.2-1.7v0c2.367-2 3.983-3.467 4.85-4.4v0c3.067-3.3 4.717-4.95 4.95-4.95v0c0.4 0 0.883 0.117 1.45 0.35 0.567 0.233 0.75 0.517 0.55 0.85v0c-1.7 2.4-2.7 4.817-3 7.25v0c-0.033 0.3-0.05 0.683-0.05 1.15 0 0.467 0.133 0.85 0.4 1.15v0c0.5 0.533 1.183 0.567 2.05 0.1 0.867-0.467 2.077-1.4 3.63-2.8 1.547-1.4 2.787-2.767 3.72-4.1v0c0.133-0.167 0.283-0.21 0.45-0.13 0.167 0.087 0.25 0.163 0.25 0.23v0c0 0.5-0.79 1.59-2.37 3.27-1.587 1.687-2.797 2.83-3.63 3.43v0c-1.567 1.167-3.017 1.75-4.35 1.75v0c-1.267 0-2.117-0.633-2.55-1.9v0c-0.1-0.4-0.15-0.85-0.15-1.35v0c0-1.5 0.317-3.083 0.95-4.75v0c-0.133 0.067-0.75 0.733-1.85 2-1.1 1.267-2.373 2.483-3.82 3.65-1.453 1.167-2.763 1.75-3.93 1.75zM57.05-11.15v0c0-1.6-0.467-2.4-1.4-2.4v0c-0.2 0-0.407 0.023-0.62 0.07-0.22 0.053-0.33 0.013-0.33-0.12 0-0.133 0.1-0.3 0.3-0.5v0c0.2-0.167 0.883-0.3 2.05-0.4v0c1.4 0 2.277 0.2 2.63 0.6 0.347 0.4 0.52 0.8 0.52 1.2 0 0.4-0.307 1.39-0.92 2.97-0.62 1.587-0.947 2.413-0.98 2.48v0c-1 3-1.45 4.883-1.35 5.65v0c3-4.033 4.967-6.55 5.9-7.55v0c1.967-2.167 3.367-3.65 4.2-4.45v0c1.933-1.8 3.633-3.017 5.1-3.65v0c0.433-0.167 0.817-0.25 1.15-0.25v0c1.1 0 1.85 0.333 2.25 1v0c0.133 0.167 0.2 0.323 0.2 0.47 0 0.153-0.05 0.33-0.15 0.53-0.1 0.2-0.283 0.19-0.55-0.03-0.267-0.213-0.867-0.32-1.8-0.32v0c-1.533 0-4.1 1.8-7.7 5.4v0c-2.167 2.233-4.157 4.567-5.97 7-1.82 2.433-2.797 4.167-2.93 5.2v0c0 0.267-0.25 0.4-0.75 0.4-0.5 0-0.873-0.207-1.12-0.62-0.253-0.42-0.38-0.77-0.38-1.05 0-0.287 0.017-0.54 0.05-0.76 0.033-0.213 0.367-1.437 1-3.67 0.633-2.233 1.033-3.717 1.2-4.45v0c-0.4 0.667-0.95 1.483-1.65 2.45v0c-0.233 0.267-0.423 0.34-0.57 0.22-0.153-0.113-0.23-0.22-0.23-0.32 0-0.1 0.033-0.217 0.1-0.35v0c1.4-1.9 2.317-3.483 2.75-4.75zM80.55-5.5v0c0.6-1.233 0.9-2.183 0.9-2.85 0-0.667-0.073-1.193-0.22-1.58-0.153-0.38-0.087-0.703 0.2-0.97 0.28-0.267 0.637-0.367 1.07-0.3v0c0.667 0.167 1 0.917 1 2.25 0 1.333-0.783 3.083-2.35 5.25v0c0.033 0.9 0.5 1.35 1.4 1.35 0.9 0 2.267-0.967 4.1-2.9v0c0.867-1 1.41-1.65 1.63-1.95 0.213-0.3 0.403-0.41 0.57-0.33 0.167 0.087 0.25 0.163 0.25 0.23v0c0 0.333-0.6 1.2-1.8 2.6v0c-1.9 2.333-3.583 3.5-5.05 3.5v0c-0.967 0-1.65-0.417-2.05-1.25v0c-0.667 0.7-1.317 1.35-1.95 1.95v0c-1.3 1.1-2.75 1.65-4.35 1.65v0c-0.9 0-1.65-0.217-2.25-0.65v0c-1.167-0.7-1.75-1.95-1.75-3.75v0c0-1.967 0.667-3.967 2-6v0c0.767-1.2 1.667-2.25 2.7-3.15v0c1.633-1.433 3.183-2.15 4.65-2.15v0c0.367 0 0.717 0.05 1.05 0.15v0c1 0.333 1.5 0.967 1.5 1.9v0c0 0.767-0.2 1.15-0.6 1.15v0c-0.167-0.067-0.25-0.317-0.25-0.75v0c0-0.6-0.333-0.9-1-0.9v0c-1.167 0-2.667 1.067-4.5 3.2-1.833 2.133-2.933 4.283-3.3 6.45v0c-0.067 0.367-0.1 0.773-0.1 1.22 0 0.453 0.15 0.97 0.45 1.55 0.3 0.587 0.857 0.88 1.67 0.88 0.82 0 1.713-0.367 2.68-1.1 0.967-0.733 1.833-1.667 2.6-2.8v0l-0.15-0.3c-0.133-0.533-0.067-0.967 0.2-1.3 0.267-0.333 0.617-0.433 1.05-0.3zM94.35 1.25v0c-1.7 0-2.55-1.027-2.55-3.08 0-2.047 1.467-4.57 4.4-7.57v0c0.233-0.233 0.4-0.417 0.5-0.55v0l0.35-0.5c0.467-0.633 0.683-1.033 0.65-1.2v0l-0.15-0.45c-0.133-0.4-0.683-0.693-1.65-0.88-0.967-0.18-1.75-0.27-2.35-0.27v0c-3 4.233-4.733 6.65-5.2 7.25-0.467 0.6-0.783 0.85-0.95 0.75-0.167-0.1-0.25-0.217-0.25-0.35 0-0.133 0.1-0.333 0.3-0.6v0c1.8-2.2 3.35-4.55 4.65-7.05v0c-0.4-0.067-0.7-0.21-0.9-0.43-0.2-0.213-0.217-0.58-0.05-1.1 0.167-0.513 0.673-1.203 1.52-2.07 0.853-0.867 1.597-1.45 2.23-1.75 0.633-0.3 1.033-0.483 1.2-0.55 0.167-0.067 0.35-0.1 0.55-0.1v0c0.4 0 0.267 0.6-0.4 1.8v0l-1.95 3.1c1.5 0.1 2.783 0.15 3.85 0.15v0l1.75-0.05c0.567 0 0.983 0.073 1.25 0.22 0.267 0.153 0.333 0.413 0.2 0.78v0c-0.233 0.633-0.817 1.483-1.75 2.55v0c-2 2.333-3.5 4.817-4.5 7.45v0c-0.233 0.633-0.35 1.183-0.35 1.65v0c0 0.967 0.35 1.45 1.05 1.45v0c0.233 0 0.677-0.183 1.33-0.55 0.647-0.367 1.737-1.243 3.27-2.63 1.533-1.38 2.767-2.737 3.7-4.07v0c0.133-0.167 0.293-0.21 0.48-0.13 0.18 0.087 0.27 0.17 0.27 0.25 0 0.087-0.033 0.18-0.1 0.28v0c-0.5 0.9-1.4 2.05-2.7 3.45-1.3 1.4-2.567 2.533-3.8 3.4v0c-1.2 0.933-2.5 1.4-3.9 1.4z" fill="#ffad1c" fill-rule="nonzero" stroke="none" stroke-width="1" stroke-linecap="butt" stroke-linejoin="miter" stroke-miterlimit="10" stroke-dasharray="" stroke-dashoffset="0" font-family="none" font-weight="none" font-size="none" text-anchor="none" style="mix-blend-mode: normal" data-fill-palette-color="primary" opacity="1"></path></g></svg></g></svg></g><g transform="matrix(1,0,0,1,0,192.1267049823429)"><svg viewBox="0 0 153.74632023809525 16.421140590136055" height="16.421140590136055" width="153.74632023809525"><g transform="matrix(1,0,0,1,0,0)"><svg width="153.74632023809525" viewBox="2.25 -43.6 595 63.55" height="16.421140590136055" data-palette-color="#fade7f"><path d="M8.3 0.5Q8.2 0.5 8.13 0.38 8.05 0.25 8.1 0L8.1 0Q8.8-6.2 9.15-10.83 9.5-15.45 9.5-20.75L9.5-20.75Q9.5-24.6 9.28-26.78 9.05-28.95 8.5-29.95 7.95-30.95 6.95-30.95L6.95-30.95Q4.85-30.95 3.35-26.9L3.35-26.9Q3.15-26.3 3.03-26.1 2.9-25.9 2.6-25.9L2.6-25.9Q2.25-25.9 2.25-26.8L2.25-26.8Q2.25-28.75 3.18-30.7 4.1-32.65 5.6-33.93 7.1-35.2 8.7-35.2L8.7-35.2Q11.35-35.2 12.28-31.55 13.2-27.9 13.2-21.6L13.2-21.6Q13.2-17.6 12.75-10.8L12.75-10.8 12.85-10.8 17.15-20.05Q21.15-28.45 21.75-29.9L21.75-29.9Q22.2-30.8 23.1-31.68 24-32.55 24.73-32.93 25.45-33.3 25.35-32.8L25.35-32.8Q25.15-31.75 25.13-31.03 25.1-30.3 25.1-29.2L25.1-29.2Q25.1-26.5 25.23-22.95 25.35-19.4 25.5-17.25L25.5-17.25Q25.5-17.1 25.7-14.2L25.7-14.2Q26-10.45 26.15-7.85L26.15-7.85 26.25-7.85Q28.25-12.45 28.5-13.1L28.5-13.1 30.8-18.3 31.5-19.85Q32.7-22.65 33.27-24.33 33.85-26 33.85-27.65L33.85-27.65Q33.85-29 33.5-29.68 33.15-30.35 32.55-30.95L32.55-30.95Q32.4-31.05 33.1-32.15 33.8-33.25 34.68-34.23 35.55-35.2 36.1-35.2L36.1-35.2Q36.75-35.2 37.33-34.08 37.9-32.95 37.9-31.55L37.9-31.55Q37.9-30.4 37.4-28.88 36.9-27.35 35.9-25L35.9-25 26.65-4.2Q26.3-3.45 25.58-2.15 24.85-0.85 24.45-0.35L24.45-0.35Q24.15 0.05 23.75 0.28 23.35 0.5 23.2 0.5L23.2 0.5Q23 0.5 22.98 0.08 22.95-0.35 22.95-0.78 22.95-1.2 22.95-1.45L22.95-1.45Q22.95-4 22.65-8.68 22.35-13.35 22.25-15L22.25-15Q21.7-21.9 21.65-24.75L21.65-24.75 21.6-24.75Q19.8-21.15 16.38-13.7 12.95-6.25 12.1-4.1L12.1-4.1Q12-3.9 11.3-2.55 10.6-1.2 9.75-0.3L9.75-0.3Q9.35 0.1 8.93 0.3 8.5 0.5 8.3 0.5L8.3 0.5ZM41.65 0.5Q39.4 0.5 38.08-1.23 36.75-2.95 36.75-6L36.75-6Q36.75-9.7 38.53-13.93 40.3-18.15 43.1-20.98 45.9-23.8 48.75-23.8L48.75-23.8Q51.35-23.8 51.35-20.65L51.35-20.65Q51.35-18.1 49.85-15.65 48.35-13.2 45.83-11.33 43.3-9.45 40.3-8.45L40.3-8.45Q40.3-5.75 41.18-4.55 42.05-3.35 43.75-3.35L43.75-3.35Q45.55-3.35 47.05-4.5 48.55-5.65 49.6-7.65L49.6-7.65Q49.75-7.95 49.9-8.15 50.05-8.35 50.3-8.35L50.3-8.35Q50.7-8.35 50.7-7.75L50.7-7.75Q50.7-6.4 49.35-4.4 48-2.4 45.9-0.95 43.8 0.5 41.65 0.5L41.65 0.5ZM41.9-11.1Q43.2-11.1 44.68-12.03 46.15-12.95 47.15-14.55 48.15-16.15 48.15-18.15L48.15-18.15Q48.15-20.5 46.5-20.5L46.5-20.5Q45.15-20.5 43.93-19.05 42.7-17.6 41.88-15.45 41.05-13.3 40.75-11.3L40.75-11.3Q41.05-11.1 41.9-11.1L41.9-11.1ZM70.9 0.5Q68.35 0.5 68.35-4.4L68.35-4.4Q68.35-8.95 70.35-13.48 72.35-18 75.75-20.9 79.15-23.8 83.05-23.8L83.05-23.8 83.55-23.8Q85.2-30.7 86.65-34.2 88.1-37.7 90.5-40L90.5-40Q92.1-41.5 93.4-42.05 94.7-42.6 96.95-43.05L96.95-43.05Q97.95-43.25 98.38-43.43 98.8-43.6 98.95-43.6L98.95-43.6Q99.3-43.6 99.3-43.2L99.3-43.2Q99.3-42.55 98.35-41.75L98.35-41.75Q97.85-41.3 97.43-41.15 97-41 96.6-40.95 96.2-40.9 96-40.85L96-40.85Q93.4-40.5 91.6-38.25L91.6-38.25Q90.25-36.5 89.23-33.25 88.2-30 86.45-21.9L86.45-21.9Q83.55-7.9 83.2-5.15L83.2-5.15Q83.15-4.8 83.15-4.3L83.15-4.3Q83.15-3.2 83.8-3.2L83.8-3.2Q84.6-3.2 85.33-4.28 86.05-5.35 86.85-7.15L86.85-7.15Q87.15-7.7 87.4-7.7L87.4-7.7Q87.7-7.7 87.7-7.15L87.7-7.15 87.6-6.3Q87.2-4.55 86.13-2.98 85.05-1.4 83.73-0.45 82.4 0.5 81.3 0.5L81.3 0.5Q79.7 0.5 79.7-2.15L79.7-2.15Q79.7-3.15 79.9-4.55L79.9-4.55 80.75-8.95 80.7-8.95Q78.85-5.75 76-2.63 73.15 0.5 70.9 0.5L70.9 0.5ZM73.25-3.6Q74.65-3.6 76.48-5.78 78.3-7.95 79.88-11.1 81.45-14.25 82.05-16.75L82.05-16.75 82.85-19.95Q81.35-20.95 79.7-20.95L79.7-20.95Q77.55-20.95 75.78-18.48 74-16 73-12.48 72-8.95 72-6.1L72-6.1Q72-4.85 72.28-4.23 72.55-3.6 73.25-3.6L73.25-3.6ZM95.3 0.5Q93.2 0.5 92.13-1.13 91.05-2.75 91.05-5.65L91.05-5.65Q91.05-9.7 93-13.95 94.95-18.2 97.83-21 100.7-23.8 103.3-23.8L103.3-23.8Q105.25-23.8 106.3-22.08 107.35-20.35 107.35-17.55L107.35-17.55Q107.35-13.8 105.53-9.55 103.7-5.3 100.9-2.4 98.1 0.5 95.3 0.5L95.3 0.5ZM97.75-2.8Q99.4-2.8 100.75-4.48 102.1-6.15 102.9-8.93 103.7-11.7 103.7-14.8L103.7-14.8Q103.7-20.5 100.75-20.5L100.75-20.5Q98.9-20.5 97.53-18.5 96.15-16.5 95.43-13.63 94.7-10.75 94.7-8.25L94.7-8.25Q94.7-5.85 95.43-4.33 96.15-2.8 97.75-2.8L97.75-2.8ZM112.05 0.5Q111.6 0.5 111.6 0.2L111.6 0.2Q111.6 0 111.83-0.68 112.05-1.35 112.45-3L112.45-3Q113.45-7.15 114.85-16.85L114.85-16.85Q115.15-18.75 115.15-19.5L115.15-19.5Q115.15-20.15 114.85-20.15L114.85-20.15Q114-20.15 112.3-17.15L112.3-17.15Q112.05-16.7 111.85-16.38 111.65-16.05 111.53-15.9 111.4-15.75 111.25-15.75L111.25-15.75Q110.85-15.75 110.85-16.25L110.85-16.25Q110.85-17.25 111.95-19.1 113.05-20.95 114.55-22.38 116.05-23.8 117.25-23.8L117.25-23.8Q118.05-23.8 118.4-23.1 118.75-22.4 118.75-21.35L118.75-21.35Q118.75-19.7 117.95-14.9L117.95-14.9 118-14.9Q120.3-18.95 123.05-21.38 125.8-23.8 127.8-23.8L127.8-23.8Q129.9-23.8 129.9-20.85L129.9-20.85Q129.9-19.75 129.45-17.15L129.45-17.15 128.3-11.15Q127.05-4.8 127.05-3.95L127.05-3.95Q127.05-3.6 127.23-3.33 127.4-3.05 127.8-3.05L127.8-3.05Q129.15-3.05 130.9-7.15L130.9-7.15Q131.05-7.7 131.4-7.7L131.4-7.7Q131.7-7.7 131.7-7.1L131.7-7.1Q131.7-6.65 131.65-6.3L131.65-6.3Q131.3-4.5 130.2-2.93 129.1-1.35 127.75-0.43 126.4 0.5 125.3 0.5L125.3 0.5Q124.25 0.5 123.88-0.38 123.5-1.25 123.5-2.3L123.5-2.3Q123.5-4.55 124.75-10.4L124.75-10.4Q125.95-16.1 126.05-18.3L126.05-18.3Q126.1-19.2 125.93-19.58 125.75-19.95 125.1-19.95L125.1-19.95Q123.55-19.95 121.78-17.9 120-15.85 118.6-12.88 117.2-9.9 116.75-7.45L116.75-7.45 115.95-3.1Q115.65-1.8 114.35-0.65 113.05 0.5 112.05 0.5L112.05 0.5ZM136.65-23.95Q136.3-23.95 136.18-24 136.05-24.05 136.05-24.25L136.05-24.25Q136.05-24.5 136.3-25.13 136.55-25.75 136.7-26.25L136.7-26.25Q137.2-27.8 137.45-29.7 137.7-31.6 137.95-34.1L137.95-34.1 138.05-35.2Q138.1-35.65 138.98-35.88 139.85-36.1 140.85-36.1L140.85-36.1Q141.25-36.1 141.33-36.05 141.4-36 141.35-35.65L141.35-35.65 141.15-34.1Q140.9-31.9 140.63-30.43 140.35-28.95 139.85-27.65L139.85-27.65Q138.65-23.95 136.65-23.95L136.65-23.95ZM149.2 0.5Q147.7 0.5 147.1-0.53 146.5-1.55 146.5-3.3L146.5-3.3Q146.5-4.6 146.72-6.08 146.95-7.55 147-7.85L147-7.85 149.05-20.7 144-20.7Q143.75-20.7 143.75-20.95L143.75-20.95Q143.75-21.45 144.85-22.38 145.95-23.3 146.45-23.3L146.45-23.3 149.45-23.3 149.95-26.4Q150.15-28.05 151.5-29.35 152.85-30.65 154.2-30.65L154.2-30.65Q154.45-30.65 154.45-30.4L154.45-30.4Q154.45-30.2 154-29.23 153.55-28.25 153.35-27.15L153.35-27.15 152.75-23.3 157.65-23.3Q157.95-23.3 157.95-23L157.95-23Q157.95-22.6 156.78-21.65 155.6-20.7 155.25-20.7L155.25-20.7 152.45-20.7 150.4-7.95Q150.35-7.6 150.13-6.25 149.9-4.9 149.9-4.15L149.9-4.15Q149.9-2.5 151-2.5L151-2.5Q151.8-2.5 152.7-3.28 153.6-4.05 154.3-5.45L154.3-5.45Q154.35-5.55 154.43-5.65 154.5-5.75 154.6-5.75L154.6-5.75Q154.85-5.75 154.85-5.1L154.85-5.1Q154.85-4.1 153.97-2.75 153.1-1.4 151.78-0.45 150.45 0.5 149.2 0.5L149.2 0.5ZM176.8 0.5Q174.25 0.5 174.25-4.4L174.25-4.4Q174.25-8.95 176.25-13.48 178.25-18 181.65-20.9 185.05-23.8 188.95-23.8L188.95-23.8 189.45-23.8Q191.1-30.7 192.55-34.2 194-37.7 196.4-40L196.4-40Q198-41.5 199.3-42.05 200.6-42.6 202.85-43.05L202.85-43.05Q203.85-43.25 204.28-43.43 204.7-43.6 204.85-43.6L204.85-43.6Q205.2-43.6 205.2-43.2L205.2-43.2Q205.2-42.55 204.25-41.75L204.25-41.75Q203.75-41.3 203.33-41.15 202.9-41 202.5-40.95 202.1-40.9 201.9-40.85L201.9-40.85Q199.3-40.5 197.5-38.25L197.5-38.25Q196.15-36.5 195.13-33.25 194.1-30 192.35-21.9L192.35-21.9Q189.45-7.9 189.1-5.15L189.1-5.15Q189.05-4.8 189.05-4.3L189.05-4.3Q189.05-3.2 189.7-3.2L189.7-3.2Q190.5-3.2 191.22-4.28 191.95-5.35 192.75-7.15L192.75-7.15Q193.05-7.7 193.3-7.7L193.3-7.7Q193.6-7.7 193.6-7.15L193.6-7.15 193.5-6.3Q193.1-4.55 192.03-2.98 190.95-1.4 189.63-0.45 188.3 0.5 187.2 0.5L187.2 0.5Q185.6 0.5 185.6-2.15L185.6-2.15Q185.6-3.15 185.8-4.55L185.8-4.55 186.65-8.95 186.6-8.95Q184.75-5.75 181.9-2.63 179.05 0.5 176.8 0.5L176.8 0.5ZM179.15-3.6Q180.55-3.6 182.38-5.78 184.2-7.95 185.78-11.1 187.35-14.25 187.95-16.75L187.95-16.75 188.75-19.95Q187.25-20.95 185.6-20.95L185.6-20.95Q183.45-20.95 181.68-18.48 179.9-16 178.9-12.48 177.9-8.95 177.9-6.1L177.9-6.1Q177.9-4.85 178.18-4.23 178.45-3.6 179.15-3.6L179.15-3.6ZM202.15 0.5Q199.9 0.5 198.58-1.23 197.25-2.95 197.25-6L197.25-6Q197.25-9.7 199.03-13.93 200.8-18.15 203.6-20.98 206.4-23.8 209.25-23.8L209.25-23.8Q211.85-23.8 211.85-20.65L211.85-20.65Q211.85-18.1 210.35-15.65 208.85-13.2 206.33-11.33 203.8-9.45 200.8-8.45L200.8-8.45Q200.8-5.75 201.68-4.55 202.55-3.35 204.25-3.35L204.25-3.35Q206.05-3.35 207.55-4.5 209.05-5.65 210.1-7.65L210.1-7.65Q210.25-7.95 210.4-8.15 210.55-8.35 210.8-8.35L210.8-8.35Q211.2-8.35 211.2-7.75L211.2-7.75Q211.2-6.4 209.85-4.4 208.5-2.4 206.4-0.95 204.3 0.5 202.15 0.5L202.15 0.5ZM202.4-11.1Q203.7-11.1 205.18-12.03 206.65-12.95 207.65-14.55 208.65-16.15 208.65-18.15L208.65-18.15Q208.65-20.5 207-20.5L207-20.5Q205.65-20.5 204.43-19.05 203.2-17.6 202.38-15.45 201.55-13.3 201.25-11.3L201.25-11.3Q201.55-11.1 202.4-11.1L202.4-11.1ZM216.85 0.5Q215.9 0.5 215.48-0.43 215.05-1.35 215.05-2.75L215.05-2.75Q215.05-3.7 215.25-5L215.25-5 218.2-24.7Q219.25-31.5 220.75-35.2 222.25-38.9 224.35-40.55L224.35-40.55Q225.55-41.5 226.85-41.95 228.15-42.4 230.85-43.05L230.85-43.05Q232.1-43.3 232.45-43.45 232.8-43.6 232.9-43.6L232.9-43.6Q233.25-43.6 233.25-43.2L233.25-43.2Q233.25-43 233.03-42.6 232.8-42.2 232.3-41.75L232.3-41.75Q231.75-41.25 231.25-41.08 230.75-40.9 230.05-40.85L230.05-40.85Q227.15-40.55 225.85-39.05L225.85-39.05Q223.4-36.25 222.25-28.7L222.25-28.7 218.6-5.15Q218.55-4.8 218.55-4.3L218.55-4.3Q218.55-3.2 219.2-3.2L219.2-3.2Q220.7-3.2 222.7-7.65L222.7-7.65Q222.9-8.2 223.25-8.2L223.25-8.2Q223.6-8.2 223.6-7.5L223.6-7.5Q223.6-5.85 222.43-3.95 221.25-2.05 219.65-0.78 218.05 0.5 216.85 0.5L216.85 0.5ZM233.95-26.65Q233.45-26.65 233.5-27.15L233.5-27.15 234.1-30.65Q234.35-32.1 235.18-32.88 236-33.65 237.25-33.65L237.25-33.65 237.45-33.65Q237.75-33.65 237.83-33.55 237.9-33.45 237.85-33.15L237.85-33.15 237.3-29.7Q237.1-28.3 236.25-27.48 235.4-26.65 234.15-26.65L234.15-26.65 233.95-26.65ZM231 0.5Q229.4 0.5 229.4-1.8L229.4-1.8Q229.4-2.95 229.7-4.45L229.7-4.45 232.1-17.8Q232.3-19.1 232.3-19.4L232.3-19.4Q232.3-20.15 231.85-20.15L231.85-20.15Q231.25-20.15 230.4-19.2 229.55-18.25 228.55-16.2L228.55-16.2Q228.35-15.6 228.05-15.6L228.05-15.6Q227.75-15.6 227.75-16.1L227.75-16.1Q227.75-17.3 228.83-19.18 229.9-21.05 231.47-22.43 233.05-23.8 234.4-23.8L234.4-23.8Q235.95-23.8 235.95-21.6L235.95-21.6Q235.95-20.55 235.65-18.85L235.65-18.85 233.05-4.4 232.95-3.75Q232.95-3.2 233.4-3.2L233.4-3.2Q234-3.2 234.85-4.17 235.7-5.15 236.7-7.15L236.7-7.15Q236.95-7.7 237.2-7.7L237.2-7.7Q237.5-7.7 237.5-7.05L237.5-7.05Q237.5-5.9 236.43-4.08 235.35-2.25 233.8-0.88 232.25 0.5 231 0.5L231 0.5ZM248.25 0.5Q247.8 0.5 247.63 0.28 247.45 0.05 247.38-0.7 247.3-1.45 247.3-2.5L247.3-2.5Q247.3-6.05 246.95-10.6L246.95-10.6Q246.5-15.75 245.88-17.85 245.25-19.95 244.3-19.95L244.3-19.95Q243.65-19.95 243.35-19.35 243.05-18.75 242.55-17.15L242.55-17.15Q242.35-16.3 241.95-16.3L241.95-16.3Q241.55-16.3 241.55-17.05L241.55-17.05Q241.55-18.3 242.13-19.9 242.7-21.5 243.73-22.65 244.75-23.8 246.05-23.8L246.05-23.8Q248.35-23.8 249.28-20.55 250.2-17.3 250.6-12.05L250.6-12.05Q250.85-8.75 250.93-7.4 251-6.05 251.05-5.7L251.05-5.7Q251.1-4.85 251.5-4.85L251.5-4.85Q252.45-4.85 253.95-6.98 255.45-9.1 256.58-11.93 257.7-14.75 257.7-16.75L257.7-16.75Q257.7-17.65 257.48-18.2 257.25-18.75 256.85-19.3 256.45-19.85 256.45-20.15L256.45-20.15Q256.45-20.9 257.65-22.35 258.85-23.8 259.5-23.8L259.5-23.8Q260-23.8 260.45-22.93 260.9-22.05 260.9-20.6L260.9-20.6Q260.9-17.3 258.65-12.23 256.4-7.15 253.4-3.33 250.4 0.5 248.25 0.5L248.25 0.5ZM267.7 0.5Q265.45 0.5 264.13-1.23 262.8-2.95 262.8-6L262.8-6Q262.8-9.7 264.58-13.93 266.35-18.15 269.15-20.98 271.95-23.8 274.8-23.8L274.8-23.8Q277.4-23.8 277.4-20.65L277.4-20.65Q277.4-18.1 275.9-15.65 274.4-13.2 271.88-11.33 269.35-9.45 266.35-8.45L266.35-8.45Q266.35-5.75 267.23-4.55 268.1-3.35 269.8-3.35L269.8-3.35Q271.6-3.35 273.1-4.5 274.6-5.65 275.65-7.65L275.65-7.65Q275.8-7.95 275.95-8.15 276.1-8.35 276.35-8.35L276.35-8.35Q276.75-8.35 276.75-7.75L276.75-7.75Q276.75-6.4 275.4-4.4 274.05-2.4 271.95-0.95 269.85 0.5 267.7 0.5L267.7 0.5ZM267.95-11.1Q269.25-11.1 270.73-12.03 272.2-12.95 273.2-14.55 274.2-16.15 274.2-18.15L274.2-18.15Q274.2-20.5 272.55-20.5L272.55-20.5Q271.2-20.5 269.98-19.05 268.75-17.6 267.93-15.45 267.1-13.3 266.8-11.3L266.8-11.3Q267.1-11.1 267.95-11.1L267.95-11.1ZM281.75 0.5Q281.55 0.5 281.43 0.43 281.3 0.35 281.3 0.25L281.3 0.25Q281.3 0.1 281.6-0.4 281.9-0.9 282.05-1.8L282.05-1.8Q282.25-2.85 282.4-3.73 282.55-4.6 282.7-5.35L282.7-5.35Q283.95-12.2 284.38-14.93 284.8-17.65 284.75-18.9L284.75-18.9Q284.75-19.55 284.65-19.85 284.55-20.15 284.2-20.15L284.2-20.15Q283.75-20.15 283.05-19.4 282.35-18.65 281.75-17.65L281.75-17.65Q281.5-17.2 281.3-16.88 281.1-16.55 280.98-16.4 280.85-16.25 280.7-16.25L280.7-16.25Q280.5-16.25 280.4-16.4 280.3-16.55 280.3-16.8L280.3-16.8Q280.3-17.75 281.38-19.45 282.45-21.15 283.93-22.48 285.4-23.8 286.55-23.8L286.55-23.8Q287.5-23.8 287.88-23.05 288.25-22.3 288.25-20.7L288.25-20.7Q288.25-18.5 287.3-14.75L287.3-14.75 287.4-14.75Q292.15-23.8 296.2-23.8L296.2-23.8Q297.25-23.8 297.83-23.23 298.4-22.65 298.4-21.6L298.4-21.6Q298.4-20.5 297.93-19.35 297.45-18.2 296.78-17.45 296.1-16.7 295.55-16.7L295.55-16.7Q295.2-16.7 295.3-17.15L295.3-17.15Q295.45-17.85 295.45-18.25L295.45-18.25Q295.45-19.45 294.15-19.45L294.15-19.45Q292.6-19.45 291.05-17.65 289.5-15.85 288.33-13.25 287.15-10.65 286.7-8.5L286.7-8.5Q286.1-6.2 285.95-3.7L285.95-3.7Q285.85-2.75 285.08-1.78 284.3-0.8 283.3-0.15 282.3 0.5 281.75 0.5L281.75 0.5ZM294.95 7.65Q294.55 7.65 294.55 7.35L294.55 7.35Q294.55 7.2 294.7 7.03 294.85 6.85 295.15 6.55L295.15 6.55Q296.8 4.9 297.58 3.45 298.35 2 298.35 0.6L298.35 0.6Q298.35-0.35 298.1-0.88 297.85-1.4 297.35-1.95L297.35-1.95Q296.75-2.55 296.75-3.1L296.75-3.1Q296.75-3.85 297.53-4.53 298.3-5.2 299.1-5.2L299.1-5.2Q299.95-5.2 300.55-4.35 301.15-3.5 301.15-1.9L301.15-1.9Q301.15 0.6 299.63 3.18 298.1 5.75 295.75 7.3L295.75 7.3Q295.25 7.65 294.95 7.65L294.95 7.65ZM324.45 0.5Q324 0.5 324 0.1L324 0.1Q324-0.1 324.28-0.65 324.55-1.2 324.65-1.65L324.65-1.65Q324.8-3.4 324.8-5.25L324.8-5.25Q324.8-7.4 324.5-13.55L324.5-13.55 324.4-15.25Q324.15-17.95 323.9-18.95 323.65-19.95 322.9-19.95L322.9-19.95Q322.25-19.95 321.93-19.33 321.6-18.7 321.15-17.15L321.15-17.15Q320.95-16.3 320.55-16.3L320.55-16.3Q320.15-16.3 320.15-17.05L320.15-17.05Q320.15-18.3 320.73-19.9 321.3-21.5 322.3-22.65 323.3-23.8 324.55-23.8L324.55-23.8Q326.55-23.8 327.3-20.15L327.3-20.15Q328-16.7 328.1-7.75L328.1-7.75Q331.75-14.5 333.8-20.85L333.8-20.85Q334.6-22.1 335.35-22.95 336.1-23.8 336.4-23.8L336.4-23.8Q336.8-23.8 336.8-22.55L336.8-22.55 336.85-19.15 336.85-17.5 337.6-6.8Q343.05-15.8 343.05-18.4L343.05-18.4Q343.05-18.9 342.85-19.23 342.65-19.55 342.33-19.9 342-20.25 342-20.4L342-20.4Q342-20.75 342.58-21.6 343.15-22.45 343.85-23.13 344.55-23.8 344.95-23.8L344.95-23.8Q345.5-23.8 345.93-22.93 346.35-22.05 346.35-20.9L346.35-20.9Q346.35-19.85 345.85-18.68 345.35-17.5 343.35-13.7L343.35-13.7 338-3.35Q337.1-1.6 336.15-0.55 335.2 0.5 334.5 0.5L334.5 0.5Q334.1 0.5 334.1 0.15L334.1 0.15Q334.1-0.1 334.35-0.75L334.35-0.75Q334.65-1.35 334.73-1.9 334.8-2.45 334.8-3.55L334.8-3.55Q334.8-6.65 334.3-12.15L334.3-12.15Q334.25-13.2 334.05-15.75L334.05-15.75 334-15.75Q331.85-11.9 330.5-9.1 329.15-6.3 328.45-3.1L328.45-3.1Q327.8-1.8 326.6-0.65 325.4 0.5 324.45 0.5L324.45 0.5ZM352.15 0.5Q349.9 0.5 348.58-1.23 347.25-2.95 347.25-6L347.25-6Q347.25-9.7 349.03-13.93 350.8-18.15 353.6-20.98 356.4-23.8 359.25-23.8L359.25-23.8Q361.85-23.8 361.85-20.65L361.85-20.65Q361.85-18.1 360.35-15.65 358.85-13.2 356.33-11.33 353.8-9.45 350.8-8.45L350.8-8.45Q350.8-5.75 351.68-4.55 352.55-3.35 354.25-3.35L354.25-3.35Q356.05-3.35 357.55-4.5 359.05-5.65 360.1-7.65L360.1-7.65Q360.25-7.95 360.4-8.15 360.55-8.35 360.8-8.35L360.8-8.35Q361.2-8.35 361.2-7.75L361.2-7.75Q361.2-6.4 359.85-4.4 358.5-2.4 356.4-0.95 354.3 0.5 352.15 0.5L352.15 0.5ZM352.4-11.1Q353.7-11.1 355.18-12.03 356.65-12.95 357.65-14.55 358.65-16.15 358.65-18.15L358.65-18.15Q358.65-20.5 357-20.5L357-20.5Q355.65-20.5 354.43-19.05 353.2-17.6 352.38-15.45 351.55-13.3 351.25-11.3L351.25-11.3Q351.55-11.1 352.4-11.1L352.4-11.1ZM383.4 0.5Q382.95 0.5 382.95 0.1L382.95 0.1Q382.95-0.1 383.23-0.65 383.5-1.2 383.6-1.65L383.6-1.65Q383.75-3.4 383.75-5.25L383.75-5.25Q383.75-7.4 383.45-13.55L383.45-13.55 383.35-15.25Q383.1-17.95 382.85-18.95 382.6-19.95 381.85-19.95L381.85-19.95Q381.2-19.95 380.88-19.33 380.55-18.7 380.1-17.15L380.1-17.15Q379.9-16.3 379.5-16.3L379.5-16.3Q379.1-16.3 379.1-17.05L379.1-17.05Q379.1-18.3 379.68-19.9 380.25-21.5 381.25-22.65 382.25-23.8 383.5-23.8L383.5-23.8Q385.5-23.8 386.25-20.15L386.25-20.15Q386.95-16.7 387.05-7.75L387.05-7.75Q390.7-14.5 392.75-20.85L392.75-20.85Q393.55-22.1 394.3-22.95 395.05-23.8 395.35-23.8L395.35-23.8Q395.75-23.8 395.75-22.55L395.75-22.55 395.8-19.15 395.8-17.5 396.55-6.8Q402-15.8 402-18.4L402-18.4Q402-18.9 401.8-19.23 401.6-19.55 401.28-19.9 400.95-20.25 400.95-20.4L400.95-20.4Q400.95-20.75 401.53-21.6 402.1-22.45 402.8-23.13 403.5-23.8 403.9-23.8L403.9-23.8Q404.45-23.8 404.88-22.93 405.3-22.05 405.3-20.9L405.3-20.9Q405.3-19.85 404.8-18.68 404.3-17.5 402.3-13.7L402.3-13.7 396.95-3.35Q396.05-1.6 395.1-0.55 394.15 0.5 393.45 0.5L393.45 0.5Q393.05 0.5 393.05 0.15L393.05 0.15Q393.05-0.1 393.3-0.75L393.3-0.75Q393.6-1.35 393.68-1.9 393.75-2.45 393.75-3.55L393.75-3.55Q393.75-6.65 393.25-12.15L393.25-12.15Q393.2-13.2 393-15.75L393-15.75 392.95-15.75Q390.8-11.9 389.45-9.1 388.1-6.3 387.4-3.1L387.4-3.1Q386.75-1.8 385.55-0.65 384.35 0.5 383.4 0.5L383.4 0.5ZM408.75 0.5Q406.2 0.5 406.2-4.35L406.2-4.35Q406.2-9 408.23-13.53 410.25-18.05 413.7-20.93 417.15-23.8 421.15-23.8L421.15-23.8Q423.2-23.8 424.7-23.15L424.7-23.15Q424.05-20.6 423.8-19.4L423.8-19.4 422.75-14Q421.35-7.6 421.05-5.15L421.05-5.15Q421-4.8 421-4.3L421-4.3Q421-3.2 421.65-3.2L421.65-3.2Q422.45-3.2 423.15-4.23 423.85-5.25 424.75-7.15L424.75-7.15Q424.8-7.2 424.93-7.45 425.05-7.7 425.25-7.7L425.25-7.7Q425.55-7.7 425.55-7.1L425.55-7.1 425.45-6.3Q425.1-4.65 424.03-3.05 422.95-1.45 421.63-0.48 420.3 0.5 419.25 0.5L419.25 0.5Q417.5 0.5 417.5-2.35L417.5-2.35Q417.5-3.45 417.75-4.6L417.75-4.6 418.6-8.95 418.55-8.95Q416.15-4.75 413.43-2.13 410.7 0.5 408.75 0.5L408.75 0.5ZM411.1-3.6Q412.5-3.6 414.33-5.78 416.15-7.95 417.73-11.1 419.3-14.25 419.9-16.75L419.9-16.75 420.7-19.95Q419.2-20.95 417.55-20.95L417.55-20.95Q415.4-20.95 413.63-18.48 411.85-16 410.85-12.48 409.85-8.95 409.85-6.1L409.85-6.1Q409.85-4.85 410.13-4.23 410.4-3.6 411.1-3.6L411.1-3.6ZM430.4 0.5Q430.2 0.5 430.08 0.43 429.95 0.35 429.95 0.25L429.95 0.25Q429.95 0.1 430.25-0.4 430.55-0.9 430.7-1.8L430.7-1.8Q430.9-2.85 431.05-3.73 431.2-4.6 431.35-5.35L431.35-5.35Q432.6-12.2 433.03-14.93 433.45-17.65 433.4-18.9L433.4-18.9Q433.4-19.55 433.3-19.85 433.2-20.15 432.85-20.15L432.85-20.15Q432.4-20.15 431.7-19.4 431-18.65 430.4-17.65L430.4-17.65Q430.15-17.2 429.95-16.88 429.75-16.55 429.63-16.4 429.5-16.25 429.35-16.25L429.35-16.25Q429.15-16.25 429.05-16.4 428.95-16.55 428.95-16.8L428.95-16.8Q428.95-17.75 430.03-19.45 431.1-21.15 432.58-22.48 434.05-23.8 435.2-23.8L435.2-23.8Q436.15-23.8 436.53-23.05 436.9-22.3 436.9-20.7L436.9-20.7Q436.9-18.5 435.95-14.75L435.95-14.75 436.05-14.75Q440.8-23.8 444.85-23.8L444.85-23.8Q445.9-23.8 446.48-23.23 447.05-22.65 447.05-21.6L447.05-21.6Q447.05-20.5 446.58-19.35 446.1-18.2 445.43-17.45 444.75-16.7 444.2-16.7L444.2-16.7Q443.85-16.7 443.95-17.15L443.95-17.15Q444.1-17.85 444.1-18.25L444.1-18.25Q444.1-19.45 442.8-19.45L442.8-19.45Q441.25-19.45 439.7-17.65 438.15-15.85 436.98-13.25 435.8-10.65 435.35-8.5L435.35-8.5Q434.75-6.2 434.6-3.7L434.6-3.7Q434.5-2.75 433.73-1.78 432.95-0.8 431.95-0.15 430.95 0.5 430.4 0.5L430.4 0.5ZM439.75 19.95Q437.05 19.95 434.9 18.53 432.75 17.1 431.9 14.55L431.9 14.55Q431.8 14.15 431.8 13.9L431.8 13.9Q431.8 12.95 432.48 12.08 433.15 11.2 434 10.85L434 10.85 434.4 10.75Q434.6 10.75 434.65 11 434.7 11.25 434.7 11.3L434.7 11.3Q435.1 14.45 436.73 16.1 438.35 17.75 441.05 17.75L441.05 17.75Q444.15 17.75 446.05 14.83 447.95 11.9 448.9 5.65L448.9 5.65 452.4-16.85Q452.7-18.65 452.7-19.4L452.7-19.4Q452.7-20.15 452.3-20.15L452.3-20.15Q451.85-20.15 451.15-19.4 450.45-18.65 449.85-17.65L449.85-17.65Q449.65-17.35 449.4-16.93 449.15-16.5 449-16.38 448.85-16.25 448.7-16.25L448.7-16.25Q448.4-16.25 448.4-16.8L448.4-16.8Q448.4-17.7 449.5-19.43 450.6-21.15 452.08-22.48 453.55-23.8 454.65-23.8L454.65-23.8Q455.55-23.8 455.98-23.13 456.4-22.45 456.3-21.35L456.3-21.35Q456.15-19.85 455.65-16.85L455.65-16.85Q455.35-15.15 455.25-14.5L455.25-14.5 455.3-14.5Q457.25-18.05 459.98-20.93 462.7-23.8 464.7-23.8L464.7-23.8Q466.15-23.8 466.7-22.35 467.25-20.9 467.25-17.75L467.25-17.75Q467.25-13.45 465.3-9.18 463.35-4.9 460.28-2.2 457.2 0.5 453.95 0.5L453.95 0.5Q453.5 0.5 453.1 0.35L453.1 0.35 452.25 5.35Q451.5 9.65 449.73 12.98 447.95 16.3 445.38 18.13 442.8 19.95 439.75 19.95L439.75 19.95ZM456.85-2.5Q458.75-2.5 460.3-4.78 461.85-7.05 462.73-10.38 463.6-13.7 463.6-16.6L463.6-16.6Q463.6-18.25 463.35-18.98 463.1-19.7 462.55-19.7L462.55-19.7Q461.2-19.7 459.35-17.6 457.5-15.5 456-12.4 454.5-9.3 454.1-6.5L454.1-6.5 453.6-3.4Q454.4-2.9 455.15-2.7 455.9-2.5 456.85-2.5L456.85-2.5ZM490.2 0.5Q488.7 0.5 488.1-0.53 487.5-1.55 487.5-3.3L487.5-3.3Q487.5-4.6 487.73-6.08 487.95-7.55 488-7.85L488-7.85 490.05-20.7 485-20.7Q484.75-20.7 484.75-20.95L484.75-20.95Q484.75-21.45 485.85-22.38 486.95-23.3 487.45-23.3L487.45-23.3 490.45-23.3 490.95-26.4Q491.15-28.05 492.5-29.35 493.85-30.65 495.2-30.65L495.2-30.65Q495.45-30.65 495.45-30.4L495.45-30.4Q495.45-30.2 495-29.23 494.55-28.25 494.35-27.15L494.35-27.15 493.75-23.3 498.65-23.3Q498.95-23.3 498.95-23L498.95-23Q498.95-22.6 497.78-21.65 496.6-20.7 496.25-20.7L496.25-20.7 493.45-20.7 491.4-7.95Q491.35-7.6 491.13-6.25 490.9-4.9 490.9-4.15L490.9-4.15Q490.9-2.5 492-2.5L492-2.5Q492.8-2.5 493.7-3.28 494.6-4.05 495.3-5.45L495.3-5.45Q495.35-5.55 495.43-5.65 495.5-5.75 495.6-5.75L495.6-5.75Q495.85-5.75 495.85-5.1L495.85-5.1Q495.85-4.1 494.98-2.75 494.1-1.4 492.78-0.45 491.45 0.5 490.2 0.5L490.2 0.5ZM503.6 0.5Q501.5 0.5 500.43-1.13 499.35-2.75 499.35-5.65L499.35-5.65Q499.35-9.7 501.3-13.95 503.25-18.2 506.13-21 509-23.8 511.6-23.8L511.6-23.8Q513.55-23.8 514.6-22.08 515.65-20.35 515.65-17.55L515.65-17.55Q515.65-13.8 513.83-9.55 512-5.3 509.2-2.4 506.4 0.5 503.6 0.5L503.6 0.5ZM506.05-2.8Q507.7-2.8 509.05-4.48 510.4-6.15 511.2-8.93 512-11.7 512-14.8L512-14.8Q512-20.5 509.05-20.5L509.05-20.5Q507.2-20.5 505.83-18.5 504.45-16.5 503.73-13.63 503-10.75 503-8.25L503-8.25Q503-5.85 503.73-4.33 504.45-2.8 506.05-2.8L506.05-2.8ZM535.2 19.95Q533.25 19.95 531.9 18.88 530.55 17.8 529.9 16.15 529.25 14.5 529.25 12.75L529.25 12.75Q529.25 11.1 529.85 10.13 530.45 9.15 531.15 8.8 531.85 8.45 532.2 8.45L532.2 8.45Q532.45 8.45 532.45 8.95L532.45 8.95Q532.45 16.75 537.45 16.75L537.45 16.75Q541 16.75 543 12.5L543 12.5Q543.75 10.85 544.4 8.35 545.05 5.85 546.15 0.55L546.15 0.55Q546.6-1.6 546.65-1.9L546.65-1.9 548.15-8.8 548.1-8.8Q546.9-6.3 545.25-4.17 543.6-2.05 542-0.78 540.4 0.5 539.4 0.5L539.4 0.5Q538.3 0.5 537.88-1.18 537.45-2.85 537.5-5.25L537.5-5.25 537.9-17.75Q537.95-18.15 537.95-18.85L537.95-18.85Q537.95-19.65 537.77-20.05 537.6-20.45 537.1-20.45L537.1-20.45Q536.45-20.45 535.65-19.6 534.85-18.75 534.25-17.4L534.25-17.4Q533.95-16.55 533.6-16.55L533.6-16.55Q533.2-16.55 533.2-17.15L533.2-17.15Q533.2-18.4 534.1-20 535-21.6 536.38-22.7 537.75-23.8 539-23.8L539-23.8Q540.4-23.8 540.9-22.4 541.4-21 541.4-18.6L541.4-18.6 541.35-17 540.9-8.75 540.85-7.1Q540.85-5.5 541.08-4.8 541.3-4.1 541.9-4.1L541.9-4.1Q543-4.1 544.5-6.2 546-8.3 547.35-11.35 548.7-14.4 549.35-17.05L549.35-17.05 550.1-20.1Q550.55-21.95 551.83-22.88 553.1-23.8 554.15-23.8L554.15-23.8Q554.55-23.8 554.55-23.55L554.55-23.55Q554.55-23.3 554.38-22.85 554.2-22.4 554.1-22.2L554.1-22.2Q553.7-21.15 553.4-19.93 553.1-18.7 552.8-17L552.8-17 550.15-2.8 549.65 0.05Q549.05 3.55 548.55 5.58 548.05 7.6 547.15 9.58 546.25 11.55 544.6 13.65L544.6 13.65Q542.35 16.65 539.9 18.3 537.45 19.95 535.2 19.95L535.2 19.95ZM560.7 0.5Q558.6 0.5 557.52-1.13 556.45-2.75 556.45-5.65L556.45-5.65Q556.45-9.7 558.4-13.95 560.35-18.2 563.23-21 566.1-23.8 568.7-23.8L568.7-23.8Q570.65-23.8 571.7-22.08 572.75-20.35 572.75-17.55L572.75-17.55Q572.75-13.8 570.93-9.55 569.1-5.3 566.3-2.4 563.5 0.5 560.7 0.5L560.7 0.5ZM563.15-2.8Q564.8-2.8 566.15-4.48 567.5-6.15 568.3-8.93 569.1-11.7 569.1-14.8L569.1-14.8Q569.1-20.5 566.15-20.5L566.15-20.5Q564.3-20.5 562.93-18.5 561.55-16.5 560.83-13.63 560.1-10.75 560.1-8.25L560.1-8.25Q560.1-5.85 560.83-4.33 561.55-2.8 563.15-2.8L563.15-2.8ZM580.35 0.5Q578.25 0.5 578.25-2.65L578.25-2.65Q578.25-4.2 578.75-7.05L578.75-7.05 580.45-17.35Q580.65-19.15 580.65-19.4L580.65-19.4Q580.65-20.15 580.25-20.15L580.25-20.15Q579.1-20.15 577.55-17.15L577.55-17.15Q577.45-16.95 577.23-16.48 577-16 576.85-15.88 576.7-15.75 576.55-15.75L576.55-15.75Q576.45-15.75 576.35-15.93 576.25-16.1 576.25-16.35L576.25-16.35Q576.25-17.35 577.27-19.18 578.3-21 579.8-22.4 581.3-23.8 582.65-23.8L582.65-23.8Q583.45-23.8 583.92-23.13 584.4-22.45 584.4-21.3L584.4-21.3Q584.4-20.55 584.3-20.15L584.3-20.15 581.95-5.4Q581.85-4.7 581.85-4.5L581.85-4.5Q581.85-3.45 582.65-3.45L582.65-3.45Q584.3-3.45 586.23-5.68 588.15-7.9 589.63-11 591.1-14.1 591.55-16.45L591.55-16.45 592.25-20.1Q592.65-21.9 593.88-22.85 595.1-23.8 596.15-23.8L596.15-23.8Q596.55-23.8 596.55-23.55L596.55-23.55Q596.55-23.4 596.35-22.98 596.15-22.55 596.05-21.95L596.05-21.95Q595.35-18.85 593.3-7.55L593.3-7.55 593-5.95Q592.65-4.2 592.65-3.8L592.65-3.8Q592.65-3.1 593.1-3.1L593.1-3.1Q593.9-3.1 594.88-4.38 595.85-5.65 596.45-7.15L596.45-7.15Q596.75-7.7 596.95-7.7L596.95-7.7Q597.25-7.7 597.25-7.25L597.25-7.25Q597.25-6.7 597.15-6.3L597.15-6.3Q596.8-4.5 595.75-2.95 594.7-1.4 593.4-0.45 592.1 0.5 591 0.5L591 0.5Q589.05 0.5 589.15-2.6L589.15-2.6Q589.25-3.95 589.75-6.25L589.75-6.25 590.2-8.7 590.15-8.7Q587.55-4.55 584.85-2.02 582.15 0.5 580.35 0.5L580.35 0.5Z" opacity="1" transform="matrix(1,0,0,1,0,0)" fill="#fade7f" class="slogan-text-1" data-fill-palette-color="secondary" id="text-1"></path></svg></g></svg></g></svg></g></svg></g><g transform="matrix(1,0,0,1,0,72.0562031743845)"><svg viewBox="0 0 95.01522590714286 64.4354392237099" height="64.4354392237099" width="95.01522590714286"><g><svg xmlns="http://www.w3.org/2000/svg" xmlns:xlink="http://www.w3.org/1999/xlink" version="1.1" x="0" y="0" viewBox="28 33.161 44 29.839" enable-background="new 0 0 100 100" xml:space="preserve" height="64.4354392237099" width="95.01522590714286" class="icon-icon-0" data-fill-palette-color="accent" id="icon-0"><g fill="#fb857f" data-fill-palette-color="accent"><path d="M53.228 40.092c-0.774 0.912-1.968 1.504-3.255 1.504-0.009 0-0.018-0.003-0.027-0.003 1.276-0.008 2.407-0.596 3.176-1.501 0.624-0.736 1.016-1.675 1.016-2.713 0-2.326-1.892-4.218-4.218-4.218s-4.218 1.892-4.218 4.218c0 1.048 0.398 1.996 1.033 2.735 0.462 0.537 1.061 0.94 1.733 1.195-0.713-0.255-1.363-0.658-1.825-1.195C36.185 41.698 28 50.748 28 61.642V63h44v-1.358C72 50.691 63.766 41.606 53.228 40.092zM47.702 37.378c0-1.223 0.995-2.218 2.218-2.218s2.218 0.995 2.218 2.218-0.995 2.218-2.218 2.218S47.702 38.601 47.702 37.378zM30.261 61c0.523-11 9.182-18.776 19.751-18.776S69.24 50 69.763 61H30.261z" fill="#fb857f" data-fill-palette-color="accent"></path><path d="M34.109 56.339l1.9 0.661h0.001c0.162-1 0.356-0.973 0.563-1.43 0.001-0.001 0.001-0.015 0.002-0.016 2.17-4.78 6.704-8.052 11.922-8.586C48.995 46.917 50 46.875 50 46.875v-2C43 44.875 36.406 49.497 34.109 56.339z" fill="#fb857f" data-fill-palette-color="accent"></path></g></svg></g></svg></g></svg></g></svg></g></svg></g></svg></g><defs></defs></svg><rect width="320" height="360" fill="none" stroke="none" visibility="hidden"></rect></g></svg></g></svg>